<?xml version="1.0" encoding="utf-8"?>
<!-- Generator: Adobe Illustrator 24.0.1, SVG Export Plug-In . SVG Version: 6.00 Build 0)  -->
<svg version="1.1" id="Layer_1" xmlns="http://www.w3.org/2000/svg" xmlns:xlink="http://www.w3.org/1999/xlink" x="0px" y="0px"
	 viewBox="0 0 1280 1562" style="enable-background:new 0 0 1280 1562;" xml:space="preserve">
<style type="text/css">
	.st0{clip-path:url(#SVGID_2_);}
	.st1{fill:#020000;}
	.st2{fill:#00EDE5;}
	.st3{fill:#FF5A99;}
</style>
<g>
	<defs>
		<rect id="SVGID_1_" width="1280" height="1562"/>
	</defs>
	<clipPath id="SVGID_2_">
		<use xlink:href="#SVGID_1_"  style="overflow:visible;"/>
	</clipPath>
	<g class="st0">
		<path class="st1" d="M-89.12,657.23c13.92-19.33,36.23-28.07,59.45-28.94c29.35-1.1,59.54-0.46,87.39,9.9
			c33.91,12.62,63.75,43.6,63.24,79.77c-0.36,25.98-15.98,49.58-35.1,67.17C73.88,796.18,59,812.62,68.33,825.98
			c3.06,4.37,8.12,6.86,13.13,8.72c23.89,8.85,50.23,7.17,75.37,11.28c25.14,4.11,52.09,17.13,59.23,41.58
			c8.23,28.2-13.71,56.29-37.49,73.53c-18.19,13.2-39.94,23.92-62.28,21.51c-10.52-1.13-20.92-5.15-31.39-3.61
			c-20.32,2.99-32.33,28.43-24.82,47.54c7.51,19.12,29.81,29.81,50.24,27.69c20.43-2.11,38.57-14.97,51.29-31.1
			c9.62-12.2,19.31-27.94,34.84-28.39c11.53-0.33,21.19,8.34,28.75,17.05c11.74,13.54,22.02,29.36,23.96,47.18
			c1.94,17.81-6.58,37.7-23.25,44.27c-16.05,6.32-33.82-0.79-50.85-3.48s-39.27,3.17-41.69,20.24
			c-1.97,13.88,11.12,25.48,24.3,30.24s27.87,5.76,39.8,13.12c15.61,9.63,23.38,28.47,25.16,46.73
			c2.71,27.77-7.58,55.97-25.83,76.82c-20.16,23.03-48.94,31.17-78.26,35.07c-23.24,3.09-47.23,4.83-68.43,14.86
			c-3.24,1.53-6.47,3.31-8.8,6.04c-2.33,2.73-3.61,6.6-2.44,9.98c1.2,3.47,4.6,5.68,8.01,7.02c11.63,4.55,23.68,0.82,34.01-5.17
			c16.99-9.84,36.15-29.93,57.81-22.79c19.49,6.42,24.1,34.62,12.63,51.64c-11.47,17.02-32.79,24.44-53.09,27.47
			c-46.35,6.94-93.42-3.27-138.83-14.87c-29.17-7.45-58.98-15.88-82.96-34.09c-43.17-32.78-58.85-90.3-64.73-144.18
			c-14.43-132.17,13.56-265.1,46.82-393.83c10.24-39.62,20.99-79.11,32.24-118.45c4.62-16.16,9.45-32.59,18.81-46.55
			C-89.98,658.45-89.55,657.84-89.12,657.23z"/>
		<path class="st2" d="M-113.12,657.23c13.92-19.33,36.23-28.07,59.45-28.94c29.35-1.1,59.54-0.46,87.39,9.9
			c33.91,12.62,63.75,43.6,63.24,79.77c-0.36,25.98-15.98,49.58-35.1,67.17C49.88,796.18,35,812.62,44.33,825.98
			c3.06,4.37,8.12,6.86,13.13,8.72c23.89,8.85,50.23,7.17,75.37,11.28c25.14,4.11,52.09,17.13,59.23,41.58
			c8.23,28.2-13.71,56.29-37.49,73.53c-18.19,13.2-39.94,23.92-62.28,21.51c-10.52-1.13-20.92-5.15-31.39-3.61
			c-20.32,2.99-32.33,28.43-24.82,47.54c7.51,19.12,29.81,29.81,50.24,27.69c20.43-2.11,38.57-14.97,51.29-31.1
			c9.62-12.2,19.31-27.94,34.84-28.39c11.53-0.33,21.19,8.34,28.75,17.05c11.74,13.54,22.02,29.36,23.96,47.18
			c1.94,17.81-6.58,37.7-23.25,44.27c-16.05,6.32-33.82-0.79-50.85-3.48s-39.27,3.17-41.69,20.24
			c-1.97,13.88,11.12,25.48,24.3,30.24s27.87,5.76,39.8,13.12c15.61,9.63,23.38,28.47,25.16,46.73
			c2.71,27.77-7.58,55.97-25.83,76.82c-20.16,23.03-48.94,31.17-78.26,35.07c-23.24,3.09-47.23,4.83-68.43,14.86
			c-3.24,1.53-6.47,3.31-8.8,6.04c-2.33,2.73-3.61,6.6-2.44,9.98c1.2,3.47,4.6,5.68,8.01,7.02c11.63,4.55,23.68,0.82,34.01-5.17
			c16.99-9.84,36.15-29.93,57.81-22.79c19.49,6.42,24.1,34.62,12.63,51.64s-32.79,24.44-53.09,27.47
			c-46.35,6.94-93.42-3.27-138.83-14.87c-29.17-7.45-58.98-15.88-82.96-34.09c-43.17-32.78-58.85-90.3-64.73-144.18
			c-14.43-132.17,13.56-265.1,46.82-393.83c10.24-39.62,20.99-79.11,32.24-118.45c4.62-16.16,9.45-32.59,18.81-46.55
			C-113.98,658.45-113.55,657.84-113.12,657.23z"/>
		<path class="st1" d="M1390.78,757.13c-13.09,19.9-35,29.59-58.17,31.44c-29.27,2.35-59.47,3-87.73-6.17
			c-34.42-11.17-65.54-40.84-66.58-77.01c-0.75-25.97,13.86-50.21,32.21-68.61c11.51-11.53,25.67-28.6,15.78-41.54
			c-3.24-4.24-8.41-6.51-13.49-8.15c-24.24-7.83-50.49-5.03-75.78-8.06s-52.78-14.9-60.95-39.02c-9.43-27.82,11.3-56.82,34.32-75.06
			c17.62-13.96,38.88-25.6,61.31-24.14c10.56,0.69,21.12,4.25,31.51,2.27c20.18-3.85,31.09-29.78,22.77-48.56
			s-31.05-28.51-51.38-25.53s-37.9,16.6-49.92,33.26c-9.1,12.6-18.1,28.74-33.6,29.85c-11.5,0.82-21.53-7.43-29.45-15.81
			c-12.3-13.02-23.25-28.4-25.95-46.11s4.97-37.95,21.35-45.22c15.76-7,33.82-0.65,50.95,1.31c17.13,1.97,39.1-4.84,40.79-22
			c1.38-13.95-12.2-24.99-25.57-29.18c-13.38-4.19-28.09-4.57-40.32-11.42c-16-8.95-24.57-27.45-27.13-45.61
			c-3.89-27.63,5.19-56.25,22.54-77.85c19.16-23.87,47.57-33.23,76.7-38.38c23.09-4.08,46.98-6.84,67.74-17.76
			c3.17-1.67,6.33-3.59,8.54-6.41s3.32-6.74,2.01-10.08c-1.34-3.41-4.84-5.48-8.31-6.67c-11.81-4.05-23.69,0.19-33.76,6.61
			c-16.56,10.56-34.85,31.44-56.79,25.24c-19.75-5.59-25.55-33.56-14.82-51.06s31.72-25.81,51.87-29.71
			c46.01-8.9,93.47-0.71,139.33,8.94c29.46,6.2,59.61,13.35,84.34,30.52c44.52,30.91,62.64,87.71,70.81,141.29
			c20.05,131.43-2.26,265.44-30.01,395.46c-8.54,40.02-17.6,79.93-27.16,119.72c-3.93,16.34-8.06,32.96-16.81,47.31
			C1391.59,755.88,1391.19,756.51,1390.78,757.13z"/>
		<path class="st2" d="M1414.76,756.11c-13.09,19.9-35,29.59-58.17,31.44c-29.27,2.35-59.47,3-87.73-6.17
			c-34.42-11.17-65.54-40.84-66.58-77.01c-0.75-25.97,13.86-50.21,32.21-68.61c11.51-11.53,25.67-28.6,15.78-41.54
			c-3.24-4.24-8.41-6.51-13.49-8.15c-24.24-7.83-50.49-5.03-75.78-8.06c-25.29-3.03-52.78-14.9-60.95-39.02
			c-9.42-27.82,11.3-56.82,34.32-75.06c17.62-13.96,38.88-25.6,61.31-24.14c10.56,0.69,21.12,4.25,31.51,2.27
			c20.18-3.85,31.09-29.78,22.77-48.56c-8.32-18.78-31.05-28.51-51.38-25.53c-20.32,2.98-37.9,16.6-49.92,33.26
			c-9.1,12.6-18.1,28.74-33.6,29.85c-11.5,0.82-21.53-7.43-29.45-15.81c-12.3-13.02-23.25-28.4-25.95-46.11s4.97-37.95,21.35-45.22
			c15.76-7,33.82-0.65,50.95,1.31c17.13,1.97,39.1-4.84,40.79-22c1.38-13.95-12.2-24.99-25.57-29.18
			c-13.38-4.19-28.09-4.57-40.32-11.42c-16-8.95-24.57-27.45-27.13-45.61c-3.89-27.63,5.19-56.25,22.54-77.85
			c19.16-23.87,47.57-33.23,76.7-38.38c23.09-4.08,46.98-6.84,67.74-17.76c3.17-1.67,6.33-3.59,8.54-6.41s3.32-6.74,2.01-10.08
			c-1.34-3.41-4.84-5.48-8.31-6.67c-11.81-4.05-23.69,0.19-33.76,6.61c-16.56,10.56-34.85,31.44-56.79,25.24
			c-19.75-5.59-25.55-33.56-14.82-51.06c10.73-17.49,31.72-25.81,51.87-29.71c46.01-8.9,93.47-0.71,139.33,8.94
			c29.46,6.2,59.61,13.35,84.34,30.52c44.52,30.91,62.64,87.71,70.81,141.29c20.05,131.43-2.26,265.44-30.01,395.46
			c-8.54,40.02-17.6,79.93-27.16,119.72c-3.93,16.34-8.06,32.96-16.81,47.31C1415.57,754.86,1415.17,755.49,1414.76,756.11z"/>
		<circle class="st3" cx="239" cy="959" r="15"/>
		<circle class="st3" cx="279" cy="1231" r="15"/>
		<circle class="st3" cx="1020" cy="271" r="15"/>
		<circle class="st3" cx="1035" cy="844" r="15"/>
		<circle class="st3" cx="193" cy="161" r="15"/>
		<circle class="st3" cx="1122" cy="975" r="46"/>
		<circle class="st3" cx="239" cy="387" r="46"/>
		<circle class="st3" cx="256.5" cy="1165.5" r="7.5"/>
		<circle class="st3" cx="181.5" cy="773.5" r="7.5"/>
		<circle class="st3" cx="127.5" cy="255.5" r="7.5"/>
		<circle class="st3" cx="1122.5" cy="1293.5" r="7.5"/>
		<circle class="st3" cx="1175.5" cy="611.5" r="7.5"/>
	</g>
</g>
</svg>
