<?xml version="1.0" encoding="utf-8"?>
<!-- Generator: Adobe Illustrator 23.0.5, SVG Export Plug-In . SVG Version: 6.00 Build 0)  -->
<svg version="1.1" id="Capa_1" xmlns="http://www.w3.org/2000/svg" xmlns:xlink="http://www.w3.org/1999/xlink" x="0px" y="0px"
	 viewBox="0 0 1024 985" style="enable-background:new 0 0 1024 985;" xml:space="preserve">
<style type="text/css">
	.st0{fill:none;stroke:#60FF95;stroke-width:4;stroke-miterlimit:10;}
	.st1{fill:none;stroke:#FF5A99;stroke-width:4;stroke-miterlimit:10;}
	.st2{fill:none;stroke:#00EDE5;stroke-width:4;stroke-miterlimit:10;}
	.st3{fill:none;stroke:#000000;stroke-width:4;stroke-miterlimit:10;}
</style>
<line class="st0" x1="85.83" y1="571.61" x2="106.53" y2="537.34"/>
<line class="st1" x1="125.1" y1="586.6" x2="135.81" y2="614.45"/>
<line class="st1" x1="34.42" y1="515.92" x2="45.13" y2="543.76"/>
<line class="st2" x1="50.88" y1="577.33" x2="40.09" y2="605.15"/>
<line class="st3" x1="175.08" y1="554.47" x2="181.5" y2="586.6"/>
<line class="st3" x1="76.55" y1="629.44" x2="82.97" y2="661.57"/>
<line class="st0" x1="166.51" y1="659.43" x2="187.21" y2="625.16"/>
<line class="st1" x1="205.78" y1="674.42" x2="216.49" y2="702.27"/>
<line class="st2" x1="362.18" y1="509.51" x2="351.39" y2="537.32"/>
<line class="st1" x1="52.23" y1="808.63" x2="41.52" y2="780.79"/>
<line class="st0" x1="43.66" y1="682.97" x2="22.96" y2="717.24"/>
<line class="st2" x1="220.69" y1="558.01" x2="231.48" y2="530.2"/>
<line class="st3" x1="305.73" y1="719.4" x2="312.16" y2="751.53"/>
<line class="st0" x1="287.88" y1="586.6" x2="308.59" y2="552.33"/>
<line class="st1" x1="292.88" y1="638.01" x2="303.59" y2="665.85"/>
<line class="st1" x1="424.25" y1="678.7" x2="434.96" y2="706.55"/>
<line class="st2" x1="252.94" y1="592.33" x2="242.15" y2="620.14"/>
<line class="st0" x1="518.5" y1="630.87" x2="539.2" y2="596.6"/>
<line class="st1" x1="557.77" y1="645.86" x2="568.48" y2="673.71"/>
<line class="st2" x1="483.55" y1="636.59" x2="472.76" y2="664.41"/>
<line class="st3" x1="607.75" y1="613.73" x2="614.17" y2="645.86"/>
<line class="st3" x1="509.22" y1="688.7" x2="515.64" y2="720.83"/>
<line class="st0" x1="599.18" y1="718.69" x2="619.88" y2="684.42"/>
<line class="st1" x1="638.45" y1="733.68" x2="649.16" y2="761.53"/>
<line class="st2" x1="564.23" y1="724.41" x2="553.44" y2="752.23"/>
<line class="st1" x1="517.75" y1="815.06" x2="507.04" y2="787.21"/>
<line class="st0" x1="476.33" y1="742.23" x2="455.63" y2="776.5"/>
<line class="st0" x1="391.41" y1="649.43" x2="412.12" y2="615.16"/>
<line class="st2" x1="350.75" y1="593.76" x2="339.96" y2="621.57"/>
<line class="st3" x1="382.13" y1="707.26" x2="388.55" y2="739.39"/>
<line class="st1" x1="60.12" y1="706.55" x2="70.83" y2="734.39"/>
<line class="st1" x1="175.79" y1="509.49" x2="186.5" y2="537.34"/>
<line class="st2" x1="119.42" y1="664.44" x2="108.64" y2="692.25"/>
<line class="st3" x1="243.62" y1="641.58" x2="250.04" y2="673.71"/>
<line class="st3" x1="145.09" y1="716.55" x2="151.51" y2="748.67"/>
<line class="st0" x1="235.05" y1="746.53" x2="255.75" y2="712.26"/>
<line class="st0" x1="114.39" y1="559.47" x2="135.09" y2="525.2"/>
<line class="st0" x1="23.39" y1="967.47" x2="44.09" y2="933.2"/>
<line class="st1" x1="274.32" y1="761.53" x2="285.03" y2="789.37"/>
<line class="st0" x1="210.06" y1="815.07" x2="230.77" y2="780.8"/>
<line class="st1" x1="269.32" y1="513.78" x2="280.03" y2="541.62"/>
<line class="st2" x1="200.1" y1="752.26" x2="189.32" y2="780.07"/>
<line class="st1" x1="156.47" y1="792.03" x2="144.67" y2="761.34"/>
<line class="st0" x1="112.21" y1="770.08" x2="91.5" y2="804.35"/>
<line class="st0" x1="27.28" y1="677.28" x2="47.99" y2="643.01"/>
<line class="st3" x1="18" y1="735.11" x2="24.43" y2="767.24"/>
<line class="st1" x1="428.79" y1="790.46" x2="416.98" y2="759.77"/>
<line class="st0" x1="349.25" y1="760.8" x2="328.54" y2="795.07"/>
<line class="st3" x1="594.34" y1="503.93" x2="600.76" y2="536.05"/>
<line class="st1" x1="454.2" y1="608.01" x2="443.49" y2="580.16"/>
<line class="st1" x1="583.43" y1="585.87" x2="572.72" y2="558.03"/>
<line class="st0" x1="528.46" y1="549.46" x2="507.75" y2="583.73"/>
<line class="st0" x1="626.31" y1="596.6" x2="647.02" y2="562.33"/>
<line class="st1" x1="665.58" y1="611.59" x2="676.29" y2="639.44"/>
<line class="st3" x1="690.92" y1="576.4" x2="698" y2="611.82"/>
<line class="st1" x1="691.24" y1="551.6" x2="680.53" y2="523.76"/>
<line class="st0" x1="636.27" y1="515.19" x2="615.56" y2="549.46"/>
<line class="st2" x1="645.51" y1="652.26" x2="656.3" y2="624.44"/>
<line class="st2" x1="483.43" y1="542.3" x2="494.22" y2="514.49"/>
<line class="st3" x1="688.43" y1="701.55" x2="694.85" y2="733.68"/>
<line class="st2" x1="685.61" y1="651.59" x2="674.82" y2="679.4"/>
<line class="st3" x1="377.13" y1="569.47" x2="383.56" y2="601.59"/>
<line class="st3" x1="345.72" y1="658" x2="352.14" y2="690.13"/>
<line class="st2" x1="267.44" y1="907.4" x2="255.58" y2="934.61"/>
<line class="st0" x1="190.41" y1="973.43" x2="211.12" y2="939.16"/>
<line class="st2" x1="103.75" y1="928.76" x2="92.96" y2="956.57"/>
<line class="st1" x1="308.2" y1="962.01" x2="297.49" y2="934.16"/>
<line class="st1" x1="621.2" y1="934.01" x2="610.49" y2="906.16"/>
<line class="st3" x1="130.13" y1="904.47" x2="136.56" y2="936.59"/>
<line class="st3" x1="947.72" y1="538" x2="954.14" y2="570.13"/>
<line class="st0" x1="780.83" y1="561.61" x2="801.53" y2="527.34"/>
<line class="st1" x1="820.1" y1="576.6" x2="830.81" y2="604.45"/>
<line class="st1" x1="729.42" y1="505.92" x2="740.13" y2="533.76"/>
<line class="st2" x1="745.88" y1="567.33" x2="735.09" y2="595.15"/>
<line class="st3" x1="870.08" y1="544.47" x2="876.5" y2="576.6"/>
<line class="st3" x1="771.55" y1="619.44" x2="777.97" y2="651.57"/>
<line class="st0" x1="861.51" y1="649.43" x2="882.21" y2="615.16"/>
<line class="st1" x1="900.78" y1="664.42" x2="911.49" y2="692.27"/>
<line class="st2" x1="657.18" y1="808.51" x2="646.39" y2="836.32"/>
<line class="st1" x1="747.23" y1="798.63" x2="736.52" y2="770.79"/>
<line class="st0" x1="738.66" y1="672.97" x2="717.96" y2="707.24"/>
<line class="st2" x1="915.69" y1="548.01" x2="926.48" y2="520.2"/>
<line class="st3" x1="1000.73" y1="709.4" x2="1007.16" y2="741.53"/>
<line class="st0" x1="982.88" y1="576.6" x2="1003.59" y2="542.33"/>
<line class="st1" x1="987.88" y1="628.01" x2="998.59" y2="655.85"/>
<line class="st1" x1="362.25" y1="827.7" x2="372.96" y2="855.55"/>
<line class="st2" x1="947.94" y1="582.33" x2="937.15" y2="610.14"/>
<line class="st0" x1="813.5" y1="929.87" x2="834.2" y2="895.6"/>
<line class="st1" x1="852.77" y1="944.86" x2="863.48" y2="972.71"/>
<line class="st2" x1="778.55" y1="935.59" x2="767.76" y2="963.41"/>
<line class="st3" x1="902.75" y1="912.73" x2="909.17" y2="944.86"/>
<line class="st3" x1="447.22" y1="837.7" x2="453.64" y2="869.83"/>
<line class="st0" x1="537.18" y1="867.69" x2="557.88" y2="833.42"/>
<line class="st1" x1="576.45" y1="882.68" x2="587.16" y2="910.53"/>
<line class="st2" x1="502.23" y1="873.41" x2="491.44" y2="901.23"/>
<line class="st2" x1="651.23" y1="948.41" x2="640.44" y2="976.23"/>
<line class="st1" x1="455.75" y1="964.06" x2="445.04" y2="936.21"/>
<line class="st0" x1="414.33" y1="891.23" x2="393.63" y2="925.5"/>
<line class="st0" x1="686.41" y1="948.43" x2="707.12" y2="914.16"/>
<line class="st2" x1="544.75" y1="934.76" x2="533.96" y2="962.57"/>
<line class="st3" x1="320.13" y1="856.26" x2="326.55" y2="888.39"/>
<line class="st1" x1="755.12" y1="696.55" x2="765.83" y2="724.39"/>
<line class="st1" x1="870.79" y1="499.49" x2="881.5" y2="527.34"/>
<line class="st2" x1="814.42" y1="654.44" x2="803.64" y2="682.25"/>
<line class="st3" x1="938.62" y1="631.58" x2="945.04" y2="663.71"/>
<line class="st3" x1="840.09" y1="706.55" x2="846.51" y2="738.67"/>
<line class="st0" x1="930.05" y1="736.53" x2="950.75" y2="702.26"/>
<line class="st0" x1="809.39" y1="549.47" x2="830.09" y2="515.2"/>
<line class="st1" x1="969.32" y1="751.53" x2="980.03" y2="779.37"/>
<line class="st0" x1="905.06" y1="805.07" x2="925.77" y2="770.8"/>
<line class="st1" x1="964.32" y1="503.78" x2="975.03" y2="531.62"/>
<line class="st2" x1="895.1" y1="742.26" x2="884.32" y2="770.07"/>
<line class="st1" x1="851.47" y1="782.03" x2="839.67" y2="751.34"/>
<line class="st0" x1="807.21" y1="760.08" x2="786.5" y2="794.35"/>
<line class="st0" x1="722.28" y1="667.28" x2="742.99" y2="633.01"/>
<line class="st3" x1="713" y1="725.11" x2="719.43" y2="757.24"/>
<line class="st1" x1="366.79" y1="939.46" x2="354.98" y2="908.77"/>
<line class="st1" x1="298.25" y1="794.7" x2="308.96" y2="822.55"/>
<line class="st0" x1="199.33" y1="886.23" x2="178.63" y2="920.5"/>
<line class="st3" x1="256.13" y1="823.26" x2="262.55" y2="855.39"/>
<line class="st1" x1="302.79" y1="906.46" x2="290.98" y2="875.77"/>
<line class="st0" x1="949.25" y1="796.8" x2="928.54" y2="831.07"/>
<line class="st3" x1="856.34" y1="794.93" x2="862.76" y2="827.05"/>
<line class="st1" x1="749.2" y1="907.01" x2="738.49" y2="879.16"/>
<line class="st1" x1="878.43" y1="884.87" x2="867.72" y2="857.03"/>
<line class="st0" x1="823.46" y1="848.46" x2="802.75" y2="882.73"/>
<line class="st0" x1="921.31" y1="895.6" x2="942.02" y2="861.33"/>
<line class="st1" x1="960.58" y1="910.59" x2="971.29" y2="938.44"/>
<line class="st3" x1="985.92" y1="875.4" x2="993" y2="910.82"/>
<line class="st1" x1="986.24" y1="850.6" x2="975.53" y2="822.76"/>
<line class="st0" x1="717.27" y1="805.19" x2="696.56" y2="839.46"/>
<line class="st2" x1="940.51" y1="951.26" x2="951.3" y2="923.44"/>
<line class="st2" x1="778.43" y1="841.3" x2="789.22" y2="813.49"/>
<line class="st3" x1="626.43" y1="850.55" x2="632.85" y2="882.68"/>
<line class="st2" x1="980.61" y1="950.59" x2="969.82" y2="978.4"/>
<line class="st3" x1="672.13" y1="868.47" x2="678.56" y2="900.59"/>
<line class="st3" x1="432.13" y1="516.47" x2="438.56" y2="548.59"/>
<line class="st2" x1="139.18" y1="811.51" x2="128.39" y2="839.32"/>
<line class="st2" x1="39.18" y1="881.51" x2="28.39" y2="909.32"/>
<line class="st0" x1="19.18" y1="870.69" x2="39.88" y2="836.42"/>
<line class="st1" x1="58.45" y1="885.68" x2="69.16" y2="913.53"/>
<line class="st1" x1="231.2" y1="910.01" x2="220.49" y2="882.16"/>
<line class="st0" x1="199.27" y1="808.19" x2="178.56" y2="842.46"/>
<line class="st3" x1="108.43" y1="853.55" x2="114.85" y2="885.68"/>
<line class="st3" x1="154.13" y1="871.47" x2="160.56" y2="903.59"/>
<line class="st3" x1="591.72" y1="773" x2="598.14" y2="805.13"/>
</svg>
