<?xml version="1.0" encoding="utf-8"?>
<!-- Generator: Adobe Illustrator 24.0.1, SVG Export Plug-In . SVG Version: 6.00 Build 0)  -->
<svg version="1.1" id="Layer_1" xmlns="http://www.w3.org/2000/svg" xmlns:xlink="http://www.w3.org/1999/xlink" x="0px" y="0px"
	 viewBox="0 0 1689.8 13425.23" style="enable-background:new 0 0 1689.8 13425.23;" xml:space="preserve">
<style type="text/css">
	.st0{clip-path:url(#SVGID_2_);}
	.st1{fill:#020000;}
	.st2{fill:#00EDE5;}
	.st3{fill:#FF5A99;}
	.st4{clip-path:url(#SVGID_4_);}
</style>
<title>fondo.albums.2</title>
<g>
	<defs>
		<rect id="SVGID_1_" y="0" width="1689.8" height="5872.12"/>
	</defs>
	<clipPath id="SVGID_2_">
		<use xlink:href="#SVGID_1_"  style="overflow:visible;"/>
	</clipPath>
	<g class="st0">
		<path class="st1" d="M-85.97,3891.09c18.38-22.74,47.83-33.03,78.48-34.05c38.75-1.29,78.6-0.54,115.37,11.66
			c44.77,14.85,84.16,51.29,83.5,93.85c-0.48,30.59-21.12,58.33-46.35,79.03c-15.84,12.94-35.46,32.33-23.14,48.05
			c4.04,5.14,10.72,8.07,17.33,10.26c31.53,10.41,66.31,8.44,99.5,13.27c33.19,4.84,68.77,20.15,78.19,48.92
			c10.86,33.18-18.1,66.23-49.49,86.52c-24.01,15.53-52.71,28.14-82.22,25.3c-13.89-1.33-27.62-6.05-41.44-4.25
			c-26.83,3.53-42.68,33.45-32.77,55.94s39.35,35.06,66.32,32.58c26.97-2.48,50.92-17.65,67.71-36.59
			c12.71-14.35,25.49-32.94,46.01-33.41c15.21-0.39,27.97,9.82,37.94,20.07c15.5,15.92,29.04,34.54,31.68,55.5
			s-8.69,44.37-30.71,52.09c-21.12,7.44-44.63-0.93-67.13-4.09c-22.5-3.17-51.83,3.73-55.04,23.81
			c-2.64,16.33,14.68,29.98,32.09,35.58c17.41,5.6,36.79,6.79,52.54,15.45c20.61,11.32,30.87,33.5,33.22,54.97
			c3.58,32.68-10.01,65.89-34.1,90.38c-26.61,27.06-64.61,36.68-103.32,41.27c-30.69,3.64-62.36,5.68-90.34,17.47
			c-4.29,1.81-8.55,3.91-11.63,7.06c-3.08,3.15-4.75,7.77-3.21,11.77s6.07,6.68,10.56,8.24c15.35,5.35,31.26,0.96,44.89-6.08
			c22.44-11.58,47.72-35.21,76.32-26.81c25.73,7.55,31.82,40.73,16.67,60.76c-15.14,20.02-43.31,28.81-70.1,32.34
			c-61.19,8.17-123.33-3.85-183.28-17.48c-38.51-8.77-77.89-18.68-109.57-40.11c-56.99-38.57-77.68-106.23-85.45-169.63
			c-19.05-155.49,17.9-311.9,61.82-463.35c13.51-46.63,27.69-93.09,42.55-139.37c6.1-19.01,12.49-38.33,24.83-54.77
			C-87.13,3892.53-86.54,3891.81-85.97,3891.09z"/>
		<path class="st2" d="M-117.65,3892.27c18.38-22.74,47.83-33.03,78.48-34.05c38.75-1.29,78.6-0.54,115.37,11.66
			c44.77,14.85,84.16,51.29,83.5,93.85c-0.48,30.59-21.12,58.33-46.35,79.03c-15.84,12.94-35.46,32.33-23.14,48.05
			c4.04,5.14,10.72,8.07,17.33,10.26c31.53,10.41,66.31,8.44,99.5,13.27c33.19,4.84,68.77,20.15,78.19,48.92
			c10.86,33.18-18.1,66.23-49.49,86.52c-24.01,15.53-52.71,28.14-82.22,25.3c-13.89-1.33-27.62-6.05-41.44-4.25
			c-26.83,3.53-42.68,33.45-32.77,55.94s39.35,35.06,66.32,32.58c26.97-2.48,50.92-17.65,67.71-36.59
			c12.71-14.35,25.49-32.94,46.01-33.41c15.21-0.39,27.97,9.82,37.94,20.07c15.5,15.92,29.04,34.54,31.68,55.5
			c2.64,20.95-8.69,44.37-30.71,52.09c-21.12,7.44-44.63-0.93-67.13-4.09c-22.5-3.16-51.83,3.73-55.04,23.81
			c-2.64,16.33,14.68,29.98,32.09,35.58c17.41,5.6,36.79,6.79,52.54,15.45c20.61,11.32,30.87,33.5,33.22,54.97
			c3.58,32.68-10.01,65.89-34.1,90.38c-26.61,27.06-64.61,36.68-103.32,41.27c-30.69,3.64-62.36,5.68-90.34,17.47
			c-4.29,1.81-8.55,3.91-11.63,7.06c-3.08,3.15-4.75,7.77-3.21,11.77c1.54,4,6.07,6.68,10.56,8.24c15.35,5.35,31.26,0.96,44.89-6.08
			c22.44-11.58,47.72-35.21,76.32-26.81c25.73,7.55,31.82,40.73,16.67,60.76c-15.14,20.02-43.31,28.81-70.1,32.34
			c-61.19,8.17-123.33-3.85-183.28-17.48c-38.51-8.77-77.89-18.68-109.57-40.11c-56.99-38.57-77.68-106.23-85.45-169.63
			c-19.05-155.49,17.9-311.9,61.82-463.35c13.5-46.63,27.68-93.09,42.55-139.37c6.1-19.01,12.49-38.33,24.83-54.77
			C-118.81,3893.71-118.22,3892.99-117.65,3892.27z"/>
		<path class="st1" d="M1836.05,1469.65c-17.28,23.41-46.21,34.81-76.79,36.99c-38.64,2.76-78.5,3.53-115.82-7.26
			c-45.43-13.14-86.52-48.05-87.9-90.59c-0.99-30.59,18.3-59.07,42.52-80.71c15.2-13.58,33.89-33.65,20.83-48.89
			c-4.28-4.99-11.1-7.66-17.81-9.59c-32-9.21-66.65-5.88-100.04-9.48c-33.39-3.6-69.68-17.53-80.53-45.89
			c-12.45-32.73,14.92-66.85,45.31-88.32c23.26-16.47,51.33-30.11,80.94-28.4c13.94,0.81,27.88,5.01,41.6,2.67
			c26.64-4.53,41.06-35.03,30.07-57.12c-10.98-22.1-40.94-33.59-67.76-30.06c-26.83,3.53-50.03,19.53-65.9,39.13
			c-12.01,14.82-23.89,33.81-44.36,35.12c-15.18,0.96-28.42-8.74-38.88-18.61c-16.24-15.3-30.69-33.41-34.32-54.25
			c-3.63-20.84,6.6-44.65,28.19-53.2c20.81-8.24,44.65-0.76,67.33,1.55c22.68,2.32,51.62-5.69,53.85-25.88
			c1.81-16.41-16.11-29.41-33.76-34.33c-17.65-4.92-37.08-5.38-53.23-13.44c-21.12-10.53-32.45-32.3-35.82-53.66
			c-5.14-32.51,6.85-66.18,29.74-91.59c25.31-28.08,62.8-39.1,101.26-45.16c30.48-4.8,62.05-8.05,89.43-20.9
			c4.18-1.95,8.34-4.21,11.26-7.53c2.92-3.32,4.4-7.94,2.64-11.86c-1.76-3.92-6.38-6.46-10.96-7.86
			c-15.59-4.71-31.29,0.24-44.57,7.78c-21.86,12.42-45.99,37-74.97,29.7c-26.07-6.58-33.73-39.48-19.55-60.07
			c14.18-20.59,41.88-30.37,68.48-34.96c60.73-10.47,123.4-0.84,183.94,10.52c38.89,7.29,78.69,15.71,111.34,35.91
			c58.77,36.38,82.69,103.19,93.48,166.25c26.4,154.63-2.98,312.3-39.6,465.28c-11.27,47.06-23.23,94.01-35.86,140.86
			c-5.19,19.22-10.64,38.83-22.19,55.66C1837.12,1468.19,1836.59,1468.92,1836.05,1469.65z"/>
		<path class="st2" d="M1867.7,1468.45c-17.28,23.41-46.21,34.8-76.79,36.99c-38.64,2.76-78.5,3.53-115.82-7.26
			c-45.43-13.14-86.52-48.05-87.9-90.59c-0.99-30.59,18.3-59.07,42.52-80.72c15.18-13.57,33.89-33.64,20.82-48.87
			c-4.28-4.99-11.09-7.66-17.8-9.59c-32-9.21-66.65-5.88-100.04-9.48c-33.39-3.6-69.68-17.53-80.53-45.89
			c-12.45-32.73,14.92-66.85,45.31-88.32c23.25-16.47,51.33-30.12,80.94-28.4c13.94,0.8,27.88,5,41.6,2.67
			c26.64-4.53,41.04-35.04,30.06-57.13c-10.98-22.1-40.92-33.54-67.82-30.03c-26.89,3.52-50.03,19.53-65.9,39.12
			c-12.01,14.82-23.89,33.81-44.36,35.13c-15.18,0.96-28.42-8.75-38.88-18.61c-16.24-15.3-30.69-33.41-34.26-54.25
			s6.6-44.65,28.19-53.2c20.81-8.24,44.65-0.76,67.33,1.54c22.68,2.31,51.6-5.68,53.85-25.88c1.81-16.47-16.11-29.41-33.76-34.33
			c-17.65-4.92-37.08-5.39-53.23-13.44c-21.12-10.53-32.45-32.3-35.82-53.66c-5.14-32.51,6.85-66.18,29.74-91.59
			c25.29-28.08,62.8-39.1,101.26-45.16c30.48-4.8,62.05-8.05,89.43-20.9c4.18-1.96,8.34-4.21,11.26-7.54
			c2.92-3.33,4.4-7.93,2.64-11.86c-1.76-3.93-6.39-6.45-10.96-7.85c-15.59-4.71-31.29,0.22-44.57,7.78
			c-21.86,12.42-46.01,36.99-74.97,29.7c-26.07-6.58-33.73-39.5-19.56-60.07c14.17-20.58,41.89-30.37,68.49-34.96
			c60.73-10.47,123.39-0.84,183.94,10.52c38.89,7.29,78.69,15.71,111.34,35.91c58.77,36.37,82.69,103.19,93.48,166.23
			c26.4,154.64-2.98,312.3-39.6,465.29c-11.27,47.06-23.23,94.01-35.86,140.86c-5.19,19.22-10.64,38.83-22.19,55.66
			C1868.78,1466.99,1868.25,1467.72,1867.7,1468.45z"/>
		<ellipse class="st3" cx="315.52" cy="1707.16" rx="19.8" ry="17.65"/>
		<ellipse class="st3" cx="368.32" cy="2027.18" rx="19.8" ry="17.65"/>
		<ellipse class="st3" cx="1346.56" cy="897.7" rx="19.8" ry="17.65"/>
		<ellipse class="st3" cx="1366.36" cy="1571.86" rx="19.8" ry="17.65"/>
		<ellipse class="st3" cx="254.79" cy="768.28" rx="19.8" ry="17.65"/>
		<ellipse class="st3" cx="1481.22" cy="1725.99" rx="60.73" ry="54.12"/>
		<ellipse class="st3" cx="315.52" cy="1034.18" rx="60.73" ry="54.12"/>
		<ellipse class="st3" cx="338.62" cy="1950.12" rx="9.9" ry="8.82"/>
		<ellipse class="st3" cx="1436.33" cy="2741.34" rx="19.8" ry="17.65"/>
		<ellipse class="st3" cx="1489.14" cy="3061.36" rx="19.8" ry="17.65"/>
		<ellipse class="st3" cx="1459.43" cy="2984.3" rx="9.9" ry="8.82"/>
		<ellipse class="st3" cx="228.39" cy="2883.7" rx="19.8" ry="17.65"/>
		<ellipse class="st3" cx="281.19" cy="3203.72" rx="19.8" ry="17.65"/>
		<ellipse class="st3" cx="251.49" cy="3126.66" rx="9.9" ry="8.82"/>
		<ellipse class="st3" cx="239.61" cy="1488.91" rx="9.9" ry="8.82"/>
		<ellipse class="st3" cx="168.32" cy="879.47" rx="9.9" ry="8.82"/>
		<ellipse class="st3" cx="1462.73" cy="4750.88" rx="19.8" ry="17.65"/>
		<ellipse class="st3" cx="1515.54" cy="5070.9" rx="19.8" ry="17.65"/>
		<ellipse class="st3" cx="1402.01" cy="3812" rx="19.8" ry="17.65"/>
		<ellipse class="st3" cx="1462.73" cy="4077.89" rx="60.73" ry="54.12"/>
		<ellipse class="st3" cx="388.13" cy="2989.59" rx="60.73" ry="54.12"/>
		<ellipse class="st3" cx="1485.84" cy="4993.83" rx="9.9" ry="8.82"/>
		<ellipse class="st3" cx="1386.82" cy="4532.63" rx="9.9" ry="8.82"/>
		<ellipse class="st3" cx="1315.54" cy="3923.18" rx="9.9" ry="8.82"/>
		<ellipse class="st3" cx="1481.88" cy="2100.72" rx="9.9" ry="8.82"/>
		<ellipse class="st3" cx="196.7" cy="5106.19" rx="19.8" ry="17.65"/>
		<ellipse class="st3" cx="311.56" cy="5260.32" rx="60.73" ry="54.12"/>
		<ellipse class="st3" cx="312.22" cy="5635.05" rx="9.9" ry="8.82"/>
		<ellipse class="st3" cx="1551.84" cy="1298.31" rx="9.9" ry="8.82"/>
	</g>
</g>
<g>
	<defs>
		<rect id="SVGID_3_" y="7182.36" width="1689.8" height="5968.15"/>
	</defs>
	<clipPath id="SVGID_4_">
		<use xlink:href="#SVGID_3_"  style="overflow:visible;"/>
	</clipPath>
	<g class="st4">
		<path class="st1" d="M-85.97,11137.09c18.38-23.12,47.83-33.57,78.48-34.61c38.75-1.32,78.6-0.55,115.37,11.85
			c44.77,15.09,84.16,52.12,83.5,95.39c-0.48,31.09-21.12,59.29-46.35,80.32c-15.84,13.15-35.46,32.86-23.14,48.84
			c4.04,5.23,10.72,8.2,17.33,10.43c31.53,10.58,66.31,8.57,99.5,13.49c33.19,4.91,68.77,20.48,78.19,49.72
			c10.86,33.72-18.1,67.31-49.49,87.94c-24.01,15.78-52.71,28.6-82.22,25.71c-13.89-1.35-27.62-6.15-41.44-4.32
			c-26.83,3.59-42.68,34-32.77,56.86s39.35,35.63,66.32,33.11s50.92-17.94,67.71-37.19c12.71-14.59,25.49-33.48,46.01-33.96
			c15.21-0.39,27.97,9.99,37.94,20.4c15.5,16.18,29.04,35.11,31.68,56.41c2.64,21.3-8.69,45.09-30.71,52.94
			c-21.12,7.56-44.63-0.94-67.13-4.16c-22.5-3.22-51.83,3.79-55.04,24.2c-2.64,16.6,14.68,30.47,32.09,36.16
			c17.41,5.69,36.79,6.9,52.54,15.7c20.61,11.5,30.87,34.04,33.22,55.87c3.58,33.22-10.01,66.96-34.1,91.86
			c-26.61,27.5-64.61,37.28-103.32,41.95c-30.69,3.7-62.36,5.78-90.34,17.76c-4.29,1.84-8.55,3.97-11.63,7.17
			c-3.08,3.21-4.75,7.89-3.21,11.96s6.07,6.79,10.56,8.37c15.35,5.44,31.26,0.98,44.89-6.18c22.44-11.77,47.72-35.79,76.32-27.25
			c25.73,7.68,31.82,41.4,16.67,61.75c-15.14,20.35-43.31,29.29-70.1,32.87c-61.19,8.3-123.33-3.91-183.28-17.77
			c-38.51-8.91-77.89-18.99-109.57-40.76c-56.99-39.2-77.68-107.97-85.45-172.41c-19.05-158.03,17.9-317,61.82-470.92
			c13.51-47.39,27.69-94.61,42.55-141.65c6.1-19.32,12.49-38.96,24.83-55.66C-87.13,11138.55-86.54,11137.82-85.97,11137.09z"/>
		<path class="st2" d="M-117.65,11138.29c18.38-23.11,47.83-33.57,78.48-34.61c38.75-1.32,78.6-0.55,115.37,11.85
			c44.77,15.09,84.16,52.12,83.5,95.39c-0.48,31.09-21.12,59.29-46.35,80.32c-15.84,13.15-35.46,32.86-23.14,48.84
			c4.04,5.23,10.72,8.2,17.33,10.43c31.53,10.58,66.31,8.57,99.5,13.49s68.77,20.48,78.19,49.72c10.86,33.72-18.1,67.31-49.49,87.94
			c-24.01,15.78-52.71,28.6-82.22,25.71c-13.89-1.35-27.62-6.15-41.44-4.32c-26.83,3.59-42.68,34-32.77,56.86
			c9.91,22.86,39.35,35.63,66.32,33.11c26.97-2.52,50.92-17.94,67.71-37.19c12.71-14.59,25.49-33.48,46.01-33.96
			c15.21-0.39,27.97,9.98,37.94,20.4c15.5,16.18,29.04,35.11,31.68,56.41s-8.69,45.09-30.71,52.94
			c-21.12,7.56-44.63-0.94-67.13-4.16s-51.83,3.79-55.04,24.2c-2.64,16.6,14.68,30.47,32.09,36.16c17.41,5.69,36.79,6.9,52.54,15.7
			c20.61,11.5,30.87,34.04,33.22,55.87c3.58,33.22-10.01,66.96-34.1,91.86c-26.61,27.5-64.61,37.29-103.32,41.95
			c-30.69,3.7-62.36,5.78-90.34,17.76c-4.29,1.84-8.55,3.97-11.63,7.17c-3.08,3.2-4.75,7.89-3.21,11.96
			c1.54,4.07,6.07,6.79,10.56,8.37c15.35,5.44,31.26,0.98,44.89-6.18c22.44-11.77,47.72-35.79,76.32-27.25
			c25.73,7.68,31.82,41.4,16.67,61.75c-15.14,20.35-43.31,29.28-70.1,32.87c-61.19,8.3-123.33-3.91-183.28-17.77
			c-38.51-8.91-77.89-18.99-109.57-40.76c-56.99-39.2-77.68-107.97-85.45-172.41c-19.05-158.03,17.9-317,61.82-470.92
			c13.5-47.39,27.68-94.61,42.55-141.65c6.1-19.32,12.49-38.96,24.83-55.66C-118.81,11139.75-118.22,11139.02-117.65,11138.29z"/>
		<path class="st1" d="M1836.05,8676.05c-17.28,23.8-46.21,35.38-76.79,37.6c-38.64,2.81-78.5,3.59-115.82-7.38
			c-45.43-13.36-86.52-48.84-87.9-92.08c-0.99-31.09,18.3-60.04,42.52-82.03c15.2-13.8,33.89-34.2,20.83-49.68
			c-4.28-5.07-11.1-7.79-17.81-9.75c-32-9.36-66.65-5.98-100.04-9.64c-33.39-3.66-69.68-17.82-80.53-46.64
			c-12.45-33.27,14.92-67.94,45.31-89.77c23.26-16.74,51.33-30.6,80.94-28.87c13.94,0.83,27.88,5.09,41.6,2.71
			c26.64-4.6,41.06-35.6,30.07-58.06c-10.98-22.46-40.94-34.14-67.76-30.55c-26.83,3.59-50.03,19.85-65.9,39.77
			c-12.01,15.07-23.89,34.37-44.36,35.69c-15.18,0.98-28.42-8.88-38.88-18.92c-16.24-15.55-30.69-33.96-34.32-55.14
			c-3.63-21.18,6.6-45.38,28.19-54.07c20.81-8.37,44.65-0.78,67.33,1.58c22.68,2.36,51.62-5.79,53.85-26.31
			c1.81-16.68-16.11-29.89-33.76-34.89c-17.65-5-37.08-5.46-53.23-13.66c-21.12-10.7-32.45-32.82-35.82-54.54
			c-5.14-33.04,6.85-67.26,29.74-93.09c25.31-28.54,62.8-39.74,101.26-45.89c30.48-4.88,62.05-8.18,89.43-21.24
			c4.18-1.98,8.34-4.28,11.26-7.65s4.4-8.07,2.64-12.05c-1.76-3.98-6.38-6.56-10.96-7.99c-15.59-4.78-31.29,0.24-44.57,7.9
			c-21.86,12.63-45.99,37.61-74.97,30.18c-26.07-6.68-33.73-40.13-19.55-61.06s41.88-30.86,68.48-35.53
			c60.73-10.64,123.4-0.85,183.94,10.69c38.89,7.41,78.69,15.96,111.34,36.5c58.77,36.97,82.69,104.88,93.48,168.96
			c26.4,157.16-2.98,317.41-39.6,472.88c-11.27,47.83-23.23,95.55-35.86,143.16c-5.19,19.54-10.64,39.46-22.19,56.57
			C1837.12,8674.56,1836.59,8675.31,1836.05,8676.05z"/>
		<path class="st2" d="M1867.7,8674.83c-17.28,23.8-46.21,35.37-76.79,37.6c-38.64,2.81-78.5,3.59-115.82-7.38
			c-45.43-13.36-86.52-48.84-87.9-92.08c-0.99-31.09,18.3-60.04,42.52-82.04c15.18-13.79,33.89-34.19,20.82-49.67
			c-4.28-5.07-11.09-7.79-17.8-9.75c-32-9.36-66.65-5.98-100.04-9.64c-33.39-3.66-69.68-17.82-80.53-46.64
			c-12.45-33.27,14.92-67.94,45.31-89.77c23.25-16.74,51.33-30.61,80.94-28.87c13.94,0.81,27.88,5.08,41.6,2.71
			c26.64-4.6,41.04-35.61,30.06-58.07c-10.98-22.46-40.92-34.09-67.82-30.52c-26.89,3.58-50.03,19.85-65.9,39.76
			c-12.01,15.07-23.89,34.37-44.36,35.71c-15.18,0.98-28.42-8.9-38.88-18.92c-16.24-15.54-30.69-33.96-34.26-55.14
			c-3.56-21.18,6.6-45.38,28.19-54.07c20.81-8.37,44.65-0.78,67.33,1.57c22.68,2.34,51.6-5.78,53.85-26.31
			c1.81-16.74-16.11-29.89-33.76-34.89c-17.65-5-37.08-5.48-53.23-13.66c-21.12-10.7-32.45-32.82-35.82-54.54
			c-5.14-33.04,6.85-67.26,29.74-93.09c25.29-28.54,62.8-39.74,101.26-45.89c30.48-4.88,62.05-8.18,89.43-21.24
			c4.18-2,8.34-4.28,11.26-7.66c2.92-3.38,4.4-8.06,2.64-12.05c-1.76-3.99-6.39-6.55-10.96-7.98c-15.59-4.78-31.29,0.23-44.57,7.9
			c-21.86,12.63-46.01,37.6-74.97,30.18c-26.07-6.68-33.73-40.14-19.56-61.06c14.17-20.91,41.89-30.86,68.49-35.53
			c60.73-10.64,123.39-0.85,183.94,10.69c38.89,7.41,78.69,15.96,111.34,36.5c58.77,36.96,82.69,104.88,93.48,168.95
			c26.4,157.17-2.98,317.41-39.6,472.9c-11.27,47.83-23.23,95.55-35.86,143.16c-5.19,19.54-10.64,39.46-22.19,56.57
			C1868.78,8673.34,1868.25,8674.09,1867.7,8674.83z"/>
		<ellipse class="st3" cx="315.52" cy="8917.44" rx="19.8" ry="17.94"/>
		<ellipse class="st3" cx="368.32" cy="9242.7" rx="19.8" ry="17.94"/>
		<ellipse class="st3" cx="1346.56" cy="8094.75" rx="19.8" ry="17.94"/>
		<ellipse class="st3" cx="1366.36" cy="8779.93" rx="19.8" ry="17.94"/>
		<ellipse class="st3" cx="254.79" cy="7963.21" rx="19.8" ry="17.94"/>
		<ellipse class="st3" cx="1481.22" cy="8936.58" rx="60.73" ry="55.01"/>
		<ellipse class="st3" cx="315.52" cy="8233.46" rx="60.73" ry="55.01"/>
		<ellipse class="st3" cx="338.62" cy="9164.37" rx="9.9" ry="8.97"/>
		<ellipse class="st3" cx="1436.33" cy="9968.54" rx="19.8" ry="17.94"/>
		<ellipse class="st3" cx="1489.14" cy="10293.79" rx="19.8" ry="17.94"/>
		<ellipse class="st3" cx="1459.43" cy="10215.47" rx="9.9" ry="8.97"/>
		<ellipse class="st3" cx="228.39" cy="10113.23" rx="19.8" ry="17.94"/>
		<ellipse class="st3" cx="281.19" cy="10438.48" rx="19.8" ry="17.94"/>
		<ellipse class="st3" cx="251.49" cy="10360.16" rx="9.9" ry="8.97"/>
		<ellipse class="st3" cx="239.61" cy="8695.63" rx="9.9" ry="8.97"/>
		<ellipse class="st3" cx="168.32" cy="8076.21" rx="9.9" ry="8.97"/>
		<ellipse class="st3" cx="1462.73" cy="12010.93" rx="19.8" ry="17.94"/>
		<ellipse class="st3" cx="1515.54" cy="12336.19" rx="19.8" ry="17.94"/>
		<ellipse class="st3" cx="1402.01" cy="11056.7" rx="19.8" ry="17.94"/>
		<ellipse class="st3" cx="1462.73" cy="11326.95" rx="60.73" ry="55.01"/>
		<ellipse class="st3" cx="388.13" cy="10220.85" rx="60.73" ry="55.01"/>
		<ellipse class="st3" cx="1485.84" cy="12257.86" rx="9.9" ry="8.97"/>
		<ellipse class="st3" cx="1386.82" cy="11789.12" rx="9.9" ry="8.97"/>
		<ellipse class="st3" cx="1315.54" cy="11169.7" rx="9.9" ry="8.97"/>
		<ellipse class="st3" cx="1481.88" cy="9317.43" rx="9.9" ry="8.97"/>
		<ellipse class="st3" cx="196.7" cy="12372.06" rx="19.8" ry="17.94"/>
		<ellipse class="st3" cx="311.56" cy="12528.71" rx="60.73" ry="55.01"/>
		<ellipse class="st3" cx="312.22" cy="12909.56" rx="9.9" ry="8.97"/>
		<ellipse class="st3" cx="1551.84" cy="8501.91" rx="9.9" ry="8.97"/>
	</g>
</g>
</svg>
