<?xml version="1.0" encoding="utf-8"?>
<!-- Generator: Adobe Illustrator 24.1.0, SVG Export Plug-In . SVG Version: 6.00 Build 0)  -->
<svg version="1.1" id="Capa_1" xmlns="http://www.w3.org/2000/svg" xmlns:xlink="http://www.w3.org/1999/xlink" x="0px" y="0px"
	 viewBox="0 0 1024 768" style="enable-background:new 0 0 1024 768;" xml:space="preserve">
<style type="text/css">
	.st0{stroke:#000000;stroke-miterlimit:10;}
	.st1{fill:#FFFFFF;}
	.st2{display:none;fill:#FFFFFF;stroke:#000000;stroke-miterlimit:10;}
	.st3{fill:#39ECE5;}
	.st4{fill:#EB5C98;}
</style>
<rect x="-0.5" y="-0.5" class="st0" width="1024" height="768"/>
<rect x="-140" y="393" class="st1" width="1194" height="421"/>
<path class="st2" d="M-5.5-7.5c0,0,36,49,108,49c74.7,0,82-56,165-32s138,58,336,19s199-36,321,18s130-84,130-84l-31-36H-0.5
	L-5.5-7.5z"/>
<path class="st1" d="M0,4.1c0,0,41,4.5,102,4.8s69-11.1,133-5.9s57,9,110,8.3s54-8,107-6.2s63,8.3,117,6.3
	c30.7-1.2,60.8-6.8,91.9-5.1c39.5,2.2,75.6,6.9,115.8,5.4c22.9-0.9,45-4.3,68.1-4.6c40.4-0.3,80.5,5.3,120.8,6.6
	c8,0.3,88.5,2.8,88.5-4.9v-23.5H-0.5L0,4.1z"/>
<path class="st3" d="M-6.1,241.3h1054.5c0-10.3,0-20.6,0-30.9c0-19.9-3.4-20.9-24.6-24.4c-52.5-8.6-109.6,1.8-161.4,10.9
	c-21.2,3.7-44,0-64.8-4.4c-24.8-5.3-46.4-7.2-71.8-3.3c-25,3.8-49.7,10.3-74.9,11.4c-39.9,1.6-77.1-13.9-116.6-11.8
	c-29.7,1.5-58.2,11.1-87.9,13c-53,3.5-54-11.1-107-12.4s-46,6.2-110,16.6c-64,10.4-72-12.5-133-11.8s-102,9.7-102,9.7L-6.1,241.3z"
	/>
<path class="st1" d="M1068.7,462.3c0,0-42.2-18.3-104.9-19.7s-71,45.2-136.8,24c-65.8-21.2-58.6-36.7-113.1-33.8
	s-55.5,32.5-110.1,25.4c-54.5-7.1-64.8-33.8-120.3-25.4c-55.5,8.4-54.5,36.7-100.8,21.2c-46.3-15.5-28.8-29.6-107-22.6
	c-78.2,7-47.3,35.3-99.8,17s-163.6-49.4-191.3-5.7v96h1084.7L1068.7,462.3z"/>
<g>
	<rect x="-14.2" y="262" class="st4" width="1029" height="197.7"/>
	<path class="st4" d="M-41.2,375.3h1055.9v107.9c0,0-18.9-15.8-42.5-5.5c-14.9,6.5-15.7,25.3-15.9,33.2c-0.5,13.8,5.3,46,6.4,54.4
		c3.2,25.8-32.9,25.8-30.8,1.8c1.3-14.8,0-36.9,0-51.7c0-14.8-6.4-35.1-42.5-34.1c-36.1,0.9-39.3,21.2-39.3,30.4
		c0,9.2,13.8,43.4-9.6,44.3c-23.4,0.9-16.9-24-14.9-33.2c4.2-19.4-10.6-41.5-40.4-44.3c-29.7-2.8-41.4,8.3-48.9,24
		c-7.4,15.7-1.1,50.7,0,63.6c1.1,12.9,8,50.7-18.5,52.7c-34.2,2.6-23.9-48.8-16.8-61.9c9.8-18.1,15.3-40.7,6.4-60.3
		c-3-6.5-7.6-12.4-13.7-16.2c-7-4.4-15.5-5.8-23.7-5.9c-7.7-0.1-15.6,0.8-22.7,4c-12.5,5.5-19.3,18-21.2,31c-1,6.6-0.7,13.4,0.5,20
		c1.7,8.9,5.2,17.8,4.2,27c-0.3,3-1.1,6.1-2.9,8.5c-3.2,4.4-9.1,6.2-14.5,5.7c-6.3-0.6-12.3-4.2-15.3-9.7c-6-11.4,8.8-19.6,7.4-30.7
		c-0.4-3.5-2.5-6.5-4.7-9.2c-29.9-36.2-80.5-45.2-124.7-38.1c-0.9,0.1-1.7,0.3-2.6,0.4c-34.4,6.3-55.6,19-58,52.4
		c-2.1,29.5,13.8,64.6-11.7,65.5c-25.5,0.9-18.1-28.6-18.1-48.9c0-20.3,6.4-66.4-31.9-71c-38.2-4.6-53.2,24.4-54.2,35.4
		c-1.1,11.1,13.8,42.4-8.5,44.3c-22.3,1.8-23.7-24.8-13.8-39.3c11.9-17.4,12.7-35.5-41.3-37.7c-41.4-1.6-55.3,36.4-52.1,55.7
		c3.2,19.4,22.3,76.6-4.2,76.6c-26.6,0-26.6-24.9-24.4-38.7c2.1-13.8,23.4-51.1,10.7-68.6c-12.7-17.5-49.9-41.5-80.7-21.2
		c-30.8,20.3-22.3,49.8-22.3,64.6c0,14.8,2.1,27.7-21.2,27.7c-23.4,0-19.1-27.7-15.9-50.7c3.2-23.1-8.5-50.7-32.9-53.5
		c-24.4-2.8-35.1,7.4-35.1,7.4L-41.2,375.3z"/>
</g>
<g>
	<rect x="-6.3" y="222.2" class="st3" width="1029" height="223.9"/>
	<path class="st3" d="M-33.3,361.7h1055.9v107.9c0,0-18.9-15.8-42.5-5.5c-14.9,6.5-15.7,25.3-15.9,33.2c-0.5,13.8,5.3,46,6.4,54.4
		c3.2,25.8-32.9,25.8-30.8,1.8c1.3-14.8,0-36.9,0-51.7c0-14.8-6.4-35.1-42.5-34.1c-36.1,0.9-39.3,21.2-39.3,30.4
		c0,9.2,13.8,43.4-9.6,44.3c-23.4,0.9-16.9-24-14.9-33.2c4.2-19.4-10.6-41.5-40.4-44.3c-29.7-2.8-41.4,8.3-48.9,24
		c-7.4,15.7-1.1,50.7,0,63.6c1.1,12.9,8,50.7-18.5,52.7c-34.2,2.6-23.9-48.8-16.8-61.9c9.8-18.1,15.3-40.7,6.4-60.3
		c-3-6.5-7.6-12.4-13.7-16.2c-7-4.4-15.5-5.8-23.7-5.9c-7.7-0.1-15.6,0.8-22.7,4c-12.5,5.5-19.3,18-21.2,31c-1,6.6-0.7,13.4,0.5,20
		c1.7,8.9,5.2,17.8,4.2,27c-0.3,3-1.1,6.1-2.9,8.5c-3.2,4.4-9.1,6.2-14.5,5.7c-6.3-0.6-12.3-4.2-15.3-9.7c-6-11.4,8.8-19.6,7.4-30.7
		c-0.4-3.5-2.5-6.5-4.7-9.2c-29.9-36.2-80.5-45.2-124.7-38.1c-0.9,0.1-1.7,0.3-2.6,0.4c-34.4,6.3-55.6,19-58,52.4
		c-2.1,29.5,13.8,64.6-11.7,65.5c-25.5,0.9-18.1-28.6-18.1-48.9c0-20.3,6.4-66.4-31.9-71c-38.2-4.6-53.2,24.4-54.2,35.4
		c-1.1,11.1,13.8,42.4-8.5,44.3c-22.3,1.8-23.7-24.8-13.8-39.3c11.9-17.4,12.7-35.5-41.3-37.7c-41.4-1.6-55.3,36.4-52.1,55.7
		c3.2,19.4,22.3,76.6-4.2,76.6c-26.6,0-26.6-24.9-24.4-38.7c2.1-13.8,23.4-51.1,10.7-68.6c-12.7-17.5-49.9-41.5-80.7-21.2
		c-30.8,20.3-22.3,49.8-22.3,64.6c0,14.8,2.1,27.7-21.2,27.7c-23.4,0-19.1-27.7-15.9-50.7c3.2-23.1-8.5-50.7-32.9-53.5
		c-24.4-2.8-35.1,7.4-35.1,7.4L-33.3,361.7z"/>
</g>
</svg>
