<svg id="Layer_1" data-name="Layer 1" xmlns="http://www.w3.org/2000/svg" viewBox="0 0 20.35 20.35"><defs><style>.cls-1{fill:#fff;}</style></defs><title>ig</title><circle class="cls-1" cx="10.17" cy="10.09" r="8.91"/><path d="M10.18,20.35A10.18,10.18,0,1,1,20.35,10.18,10.18,10.18,0,0,1,10.18,20.35Zm3.43-14.3a.75.75,0,1,0,.75.75A.75.75,0,0,0,13.61,6.05ZM10.26,7a3.17,3.17,0,1,0,3.16,3.17A3.16,3.16,0,0,0,10.26,7Zm0,5.19a2,2,0,1,1,2-2A2,2,0,0,1,10.26,12.2Zm6.38-4.65a3.86,3.86,0,0,0-3.86-3.86H7.69A3.86,3.86,0,0,0,3.83,7.55v5.09A3.86,3.86,0,0,0,7.69,16.5h5.09a3.86,3.86,0,0,0,3.86-3.86Zm-1.21,5.09a2.65,2.65,0,0,1-2.65,2.65H7.69A2.65,2.65,0,0,1,5,12.64V7.55A2.65,2.65,0,0,1,7.69,4.9h5.09a2.64,2.64,0,0,1,2.65,2.65Z" transform="translate(0 0)"/></svg>