<svg id="Layer_1" data-name="Layer 1" xmlns="http://www.w3.org/2000/svg" viewBox="0 0 20.34 20.34"><defs><style>.cls-1{fill:#39ece5;}.cls-2,.cls-3{fill:#fff;}.cls-3{fill-rule:evenodd;}</style></defs><title>twitter</title><path class="cls-1" d="M10.17,20.35A10.18,10.18,0,1,1,20.34,10.18,10.19,10.19,0,0,1,10.17,20.35Z" transform="translate(0 0)"/><path class="cls-2" d="M16,6.46a5,5,0,0,1-1.2.35c.19,0,.48-.39.59-.53a2.22,2.22,0,0,0,.4-.72s0,0,0-.07a.08.08,0,0,0-.07,0A6,6,0,0,1,14.32,6a.12.12,0,0,1-.1,0l-.12-.13a2.46,2.46,0,0,0-.69-.42,2.26,2.26,0,0,0-1.06-.17,2.5,2.5,0,0,0-1,.28,2.59,2.59,0,0,0-.81.66,2.39,2.39,0,0,0-.48,1,2.51,2.51,0,0,0,0,1c0,.06,0,.07,0,.06A7.57,7.57,0,0,1,5.1,5.8C5,5.73,5,5.73,5,5.8a2.48,2.48,0,0,0,.42,2.93l.3.27a2.52,2.52,0,0,1-.94-.27c-.06,0-.09,0-.09,0a1.31,1.31,0,0,0,0,.28,2.51,2.51,0,0,0,1.55,2,1.86,1.86,0,0,0,.31.1,2.86,2.86,0,0,1-.92,0c-.07,0-.1,0-.07.08A2.62,2.62,0,0,0,7.47,12.9l.27,0,0,0a3.07,3.07,0,0,1-1.32.7,4.64,4.64,0,0,1-2,.26H4.22s0,.05,0,.07a4.64,4.64,0,0,0,.42.25A6.56,6.56,0,0,0,6,14.77a7.17,7.17,0,0,0,7-1.63,7.33,7.33,0,0,0,1.92-5.33c0-.08.1-.12.15-.16a4.42,4.42,0,0,0,.94-1,.25.25,0,0,0,.06-.19h0S16.07,6.44,16,6.46Z" transform="translate(0 0)"/><path class="cls-3" d="M7.73,15Z" transform="translate(0 0)"/><path class="cls-3" d="M7.73,15Z" transform="translate(0 0)"/><path class="cls-3" d="M8.13,15s.21,0,0,0Z" transform="translate(0 0)"/><path class="cls-3" d="M12.32,5.31a0,0,0,0,1-.05,0Z" transform="translate(0 0)"/></svg>