<svg id="Layer_1" data-name="Layer 1" xmlns="http://www.w3.org/2000/svg" viewBox="0 0 20.35 20.35"><defs><style>.cls-1{fill:#ee5a96;}.cls-2{fill:#fff;}</style></defs><title>web</title><circle class="cls-1" cx="10.18" cy="10.18" r="10.18"/><path class="cls-2" d="M13.76,12.8c.18.21,1.84,1.87,2.11,2.21A.87.87,0,0,1,16,16a.92.92,0,0,1-.88.52,1,1,0,0,1-.72-.36c-.4-.48-1.5-1.59-1.9-2.07l-.1-.1a1.86,1.86,0,0,0-.1.2c-.3.6-.59,1.21-.88,1.81a.39.39,0,0,1-.55.21.64.64,0,0,1-.38-.45c-.25-.88-.49-1.76-.74-2.64l-1.14-4a.89.89,0,0,1,0-.56.54.54,0,0,1,.75-.32c.26.09.51.22.77.34,1.9.89,3.79,1.79,5.69,2.67a.71.71,0,0,1,.42.46.4.4,0,0,1-.3.52L14,12.72Z"/><path class="cls-2" d="M10.69,6.63a.5.5,0,0,1-.44-.75c.25-.46.51-.92.77-1.38a.45.45,0,0,1,.5-.24.48.48,0,0,1,.41.41.49.49,0,0,1,0,.29c-.26.48-.52,1-.79,1.42A.45.45,0,0,1,10.69,6.63Z"/><path class="cls-2" d="M11.67,8A.5.5,0,0,1,12,7.53c.51-.15,1-.3,1.53-.43a.46.46,0,0,1,.6.35.47.47,0,0,1-.34.6c-.49.15-1,.3-1.49.43A.49.49,0,0,1,11.67,8Z"/><path class="cls-2" d="M6.05,9.24c.32,0,.51.13.56.36a.47.47,0,0,1-.25.56c-.2.08-.41.14-.61.2s-.67.19-1,.27a.47.47,0,0,1-.6-.36.48.48,0,0,1,.36-.59c.38-.13.77-.23,1.16-.34Z"/><path class="cls-2" d="M6.9,7.32a.49.49,0,0,1-.34.5.59.59,0,0,1-.39-.06c-.47-.24-.93-.5-1.39-.76a.49.49,0,0,1-.17-.67.47.47,0,0,1,.65-.19c.48.25,1,.52,1.42.79A.4.4,0,0,1,6.9,7.32Z"/><path class="cls-2" d="M6.35,13a2,2,0,0,1,.08-.22c.25-.47.51-.93.77-1.39a.5.5,0,0,1,.66-.19.47.47,0,0,1,.2.66c-.25.47-.51.93-.77,1.4a.49.49,0,0,1-.57.23A.56.56,0,0,1,6.35,13Z"/><path class="cls-2" d="M8.27,6.34A.45.45,0,0,1,7.83,6c-.16-.52-.31-1-.45-1.57a.48.48,0,0,1,.36-.6.49.49,0,0,1,.59.35c.15.5.3,1,.43,1.51A.48.48,0,0,1,8.27,6.34Z"/></svg>