<svg id="Layer_1" data-name="Layer 1" xmlns="http://www.w3.org/2000/svg" viewBox="0 0 20.34 20.34"><defs><style>.cls-1{fill:red;}.cls-2{fill:#fff;}</style></defs><title>youtube</title><path class="cls-1" d="M10.19,20.35A10.18,10.18,0,1,1,20.36,10.18,10.19,10.19,0,0,1,10.19,20.35Z" transform="translate(-0.01 0)"/><path class="cls-2" d="M16.28,8.63A2.61,2.61,0,0,0,13.66,6H6.89A2.61,2.61,0,0,0,4.28,8.63v3.18a2.61,2.61,0,0,0,2.61,2.61h6.77a2.61,2.61,0,0,0,2.62-2.61ZM12,10.38,9.3,11.86c-.12.07-.22,0-.22-.15v-3c0-.14.11-.22.22-.16L12,10.07A.18.18,0,0,1,12,10.38Z" transform="translate(-0.01 0)"/></svg>